# xmcd CD database file
#
# Track frame offsets:
#	150
#	23340
#	60752
#	94932
#	131400
#	176825
#	208787
#	235460
#	260065
#
# Disc length: 3715 seconds
#
# Revision: 0
# Processed by: cddbd v1.5.1PL0 Copyright (c) Steve Scherf et al.
# Submitted via: CDex 1.50
#
DISCID=760e8109
DTITLE=Michael Zaporski - Insight
DYEAR=2003
DGENRE=Jazz
TTITLE0=The 12th Step
TTITLE1=My Dear Friend
TTITLE2=The Beggar's Song
TTITLE3=À Bientôt (Until We Meet Again)
TTITLE4=Like Someone in Love
TTITLE5=Serenity at Sunset
TTITLE6=Summertime
TTITLE7=Distant Yearning
TTITLE8=The Way You Look Tonight
EXTD=YEAR: 2003
EXTT0=
EXTT1=
EXTT2=
EXTT3=
EXTT4=
EXTT5=
EXTT6=
EXTT7=
EXTT8=
PLAYORDER=
